<?xml version="1.0" encoding="UTF-8"?>
<svg id="Layer_1" xmlns="http://www.w3.org/2000/svg" version="1.1" viewBox="0 0 1536 1024">
  <!-- Generator: Adobe Illustrator 30.3.0, SVG Export Plug-In . SVG Version: 2.1.3 Build 182)  -->
  <defs>
    <style>
      .st0 {
        fill: #050505;
      }

      .st1 {
        display: none;
      }

      .st1, .st2 {
        fill: #fefefe;
      }

      .st3 {
        fill: #b71d1e;
      }
    </style>
  </defs>
  <g>
    <path class="st1" d="M0,1024V0h1536v1024H0ZM860.9,127.41c.39-1.06.62-3.53-.67-4.19-.78-.4-2.84.61-3.97-1.31,4.35-1.63,7.31.67,10.67.88,2.23.14,2.8-2.72,2.41-4.24-.45-1.78-1.72-2.47-3.97-2.92-10.25-2.07-20.28-4.26-30.91-4.12l-2.19,9.9c-1.86,2.19-7.1,2.69-7.79,6.16l-5.79,29.1c-.86,4.34-3.59,7.61-7.34,9.75l-17.15,9.79c-3.67,2.09-5.24,5.98-8.03,9l-7.36,2.58c-4.31,2.96-5.75,7.43-8.14,12.55-1.48-3.61-.23-6.51.6-10.96-6.15,1.49-10.36,4.7-14.2,9.07,1-5.07,4.26-7.88,7.32-11.34-6.96-2.26-13.11-2.97-19.66-3.45,2.92-2.87,6.05-3.24,9.41-4.8-5.47-12.42-17.91-13.14-31.27-14.24,8.25-2.58,17.49-3.03,25.67.86,5.02,2.39,9.73,15.47,22.36,17.67,4.81.84,9.17-.5,11.79-4.46l6.5-9.84-7.73-13.38c-3.61,3.31-4.05,7.47-9.11,8.84,3-5.42,6.02-10.04,10.6-14.08l13.05,4.84c2.82,1.04,5.65.71,6.73-2.44l6.24-18.25c1.32-.4,4.12-.47,4.56-1.37,1.55-3.16-4.95-13.41,2.06-17.5,4.59-2.67,10.65.46,15.49-3.74-11.09-1.53-20.6-3.2-30.21-6.42,6.47-1.18,12.29-.12,18.56.17l10.38.49c-.8-4.37-4.91-7.53-6.49-11.18-1.49-12.79-7.62-23.29-19.29-28.97-10.94-5.33-23.32-7.2-35.35-5.19-17.37,2.91-29.33,15.74-31.85,32.99-3.52,3.27-6.32,6.89-8.41,11.39,3.28,3.57,7.39,4.44,12.44,5.57-5.45,26.09-26.56,7.37-46.59,18.2,2.9-6.29,13.32-7.35,21.82-9.27l-13.91-1.7c-8.41-4.07-18.74-6.61-26.71-.33-3.61,2.85-3.24,8.65-3.78,13.05-21.38,1.69-38.07,12.09-39.05,33.83-5.74-1.13-10.53-1.55-14.57,1.89-2.78,2.36-5.52,6.9-5.13,11.7.69,8.49-12.43,13.78-1.4,23.1-7.59-.92-13.22.96-14.78,7.74l-8.05,35.08c-1.14,4.96,4.82,10.39,8.68,12.48,7.69,4.17,15.25,5.72,23.27,8.1-3.99,8.24-6.04,15.86-5.86,24.15-4.95,9.65-4.83,20.46,1.1,29.27,1.02,19.58,5.52,37.85,14.43,54.43.14.11.24.22.33.35l.76,1.61c.07.15.22.24.3.3.73.85-.06,1.21-.5,1.28l-.76-.8-1.18-1.21-.16-.15-10.89-11.92c-2.4-2.63-5.95-3.77-9.04-3.11s-5.37,2.54-7.74,4.83l-.83-4.45c-.14-.78-1.7-1.37-2.99-1.73l-8.6-2.38-.72-6.26-15.35-8.58c-6.57-3.67-14.27-1.87-18.8,4.14-4.16,5.52-6.57,12.18-6.76,19.05,1.24,1.64,2.27,2.78,3.08,4.81-16.96,20.29-16.25,51.62,5.62,67.41-26.07,5.34-51.73,9.96-78.03,18.89l95.22-8.13c123.88-10.58,277.49-9.22,401.6,1.66l69.99,6.14c-58.84-15.26-117.59-21.93-177.54-26.35.33-5.67-1.92-9.9-6.77-12.37-10.22-5.21-19.98.99-24.58-6.28-1.94-3.07-5.2-3.3-7.83-5.23l-11.5-8.47c-2.8-2.06-4.98-2.84-9.58-3.18l6.86-16.31c3.32-.04,8.34,1.26,10.84-2.29,4.19-5.94,6.44-15.08,3.79-22.24-1.29-2.85-6.93-1.19-9.84-1.52l15.79-11.3c2.95-2.11,4.53-5.34,6.44-8.5-.81-.47-1.98-1.88-1.61-2.53,8.06-13.94,14.44-28.41,16.42-44.37,1.53-12.34-4.73-22.54-16.27-26.78-27.57-10.13-79.97,1.86-110.84,11.97,4.91-8.34,11.47-10.66,14.64-16.06l5.98-10.17c-22.36-4.97-40.36-21.38-54.31-38.41,5.71,1.84,9.08,5.17,13.36,8.09,17.39,11.86,35.59,21.75,55.84,27.91,13.32,4.05,24.96-3.84,35.55-13.3,12.23-10.93,27.48-22.55,22.59-38.86l4.57,4.09c5.9-3.12,5.99-10.72,9.45-15.42,4.23-1.96,10.24-1.97,14.2-5.62l8.4-4.49c2.11-1.13,3.88-3.36,3.58-4.72l-1.4-6.3c-.26-1.16,2.59-3.7,1.73-5.13-.59-.99-2.96-1.68-3.95-2.92,1.29-1.64,3.72-3.37,3.01-5.31-.66-1.8-2.55-2.87-5.02-3.85,1.32-1.11,2.18-2.28,2.35-3.37.78-5.06-8.97-4.53-18.32-.54-3.65,1.56-6.91,3.44-10.97,4.16,2.19-4.1,5.98-8.81,10.61-9.09l19.79-1.22c.21-.01.42-.13.51-.34ZM853.4,182.22c-.84-.66-3.05-1.97-4.44-1.65-3.76,3.29-4.41,8.45-4.14,13.36-2.19-.39-6.66-2.26-8.07-.37-6.15,8.23-14.02,22.76-21.12,21.32l-15.27,13.25c8.46,7.17,17.52,12.87,27.8,16.58,18.69,6.74,37.07-26.47,40.41-46.16,3.85-2.55,8.26-6.22,6.54-11.66-2.7-.65-6.52.27-8.53-2.38,7.08.52,15.25.84,20.79-4.05,2.74-2.42,4.3-5.42,8.44-5.83s5.83-4.7,6.78-8.18l28.35-1.38c11.83-.58,16.82-22.9,9.68-38.63-1.55-3.41-5.16-5.25-8.75-4.92l-70.33,6.46-.57.58c2.66,1.95,3.91,5,1.85,8.61,2.96,2.33,3.43,5.38,1.59,8.8,2.13,2.94,2.47,6.24.24,9.18,2.56,5.22.36,10.23-4.75,12.97-2.24,1.2-6.15,1.79-7.52,4.22-1.72,3.05.63,6.7,2.33,8.69.12.14.15.25.17.29,2.2,1.09.2,2.95-1.02,1.28l-.49-.39ZM818.21,212.58c2.02-.56,2.98-1.8,2.71-3.66-1.84.84-1.96,2.22-2.71,3.66ZM684.86,493.34l31.17,41.54,31.68-43.38.28,44.19,22.95-.21.08-71.15-28.92-.16-26.04,35.58-26.83-34.78-28.43.77v73.27s23.71-1.3,23.71-1.3l.35-44.37ZM857.43,502.64c8.3-2.03,12.98-8.41,11.9-16.54,1.15-10.37-6.02-17.74-16.6-19.2l-67.99-2.32.04,71.32,67.98,3.48c12.13-.55,19.23-8.95,18.77-20.4-.33-8.34-4.41-14.94-14.09-16.34ZM585.69,547.28l41.25-4.46c12.01-1.3,21.55-8.11,21.41-19.88l-.52-42.9c-.11-9.3-11.24-14.45-19.75-13.97l-50.05,2.84c-10.93.62-18.83,9.23-18.79,20.06l.18,41.93c.02,5.55,2.88,11.19,7.72,13.87,5.51,3.05,11.87,3.24,18.55,2.52ZM948.66,533.12l6.37,14.71,28.27,3.36-40.09-81.44-32.4-1.44-19.2,36.32-18.34,35.87,26.04,2.1,6.46-13,42.88,3.52ZM499.6,536.45c-2.56.06-3.79-1.6-3.79-3.44v-36.02c0-1.91,1.67-3.52,3.51-3.65l49.13-3.49.52-19.75-63.02,3.83c-10.45.64-17.2,9.98-17.08,20l.6,48.65c.14,11.16,10.95,18.16,21.62,16.55l57.1-8.62,1.33-20.54-49.94,6.49ZM1024.39,494.69l30.74,2.33-.06-21.11-64.06-4.09-24.89-.95.05,19.09,32.79,2.21v61.55s25.18,3.72,25.18,3.72l.24-62.75ZM726.05,596.4l-.05,14.08,82.57-.46-.09-13.53-58.4.25c-1.11,0-.84-3.4-.11-3.98s1.44-1.59,3.2-1.87l40.03-6.39c11.15-1.78,16.22-9.74,16.02-20.62-.17-9.22-5.17-17.69-15.72-17.66l-54.1.16c-6.84.02-13.04,5.17-13.16,11.58l-.22,11.65,21.13-.71c-.54-2.12-.72-8.61,1.97-8.64l36.04-.29c3.11,1.15,3.12,10.49,0,11.82-7.75,3.3-15.72,3.17-23.72,4.67l-24.31,4.55c-6.81,2.37-11.05,7.65-11.07,15.38ZM1016.17,582.74l-52.48-7.28-95.66-9.59-42.99-2.26.02,16.38,109.03,1.36,82.08,1.39ZM585.42,583.29l124.45-3.29v-16.37c-37.11,1.75-73.25,4.96-110.21,9.02-29.12,3.2-57.15,5.65-86.25,11.42l72.02-.78ZM709.68,601c.5-4.82.37-7.96-.16-11.43-24.26.43-47.35,2.58-71.58,4.6l-76.61,8.1,148.36-1.27ZM973.63,600.13l-62.69-5.73-85.81-5.31.03,11.72,148.47-.69ZM953.01,655.72l4.32,8.24c5.94.08,11.73.73,17.34-.46l-23.72-41.11-22.34.2-23.43,41.38,17.39-.03,4.46-8.31,25.99.09ZM748.87,665.22l16.13-.08v-41.58s-20.78.36-20.78.36l-16.37,19.26-17.55-19.58-19.03.32.02,41.9,15.78-.33.13-25.84,20.93,23.63,20.06-23.72.68,25.67ZM824.92,648.01l-.08-8.05-28.74.02c-.42-2.48-.48-4.56.04-7.39l33.85-.5c.47-3.19.41-5.94-.13-8.98l-51.77.27-.13,41.72,52.67-.29v-9.5s-34.49.1-34.49.1c-.55-2.91-.49-4.86-.02-7.31l28.79-.1ZM901.12,664.01l-11.8-11.34c4.34-1.29,9.47-3.19,9.5-7.64l.1-14.95c-1.81-4.21-6.09-7.12-10.94-7.12h-46.03s0,41.48,0,41.48l16.79-.29.28-10.58c4.14.18,8.85-.86,13,.53l11.17,9.5c5.72,1.75,11.82.12,17.93.4ZM610.49,656.8l-32.43.14c-2.04,0-3.16-2.03-3.08-3.91l.68-18.08,34.74-.8.11-9.57-42.37.59c-5.11.07-10.63,3.81-10.56,9l.36,25.2c.06,4.5,6.97,7.23,11.14,7.2l41.34-.22.07-9.56ZM663.24,657.7c1.51,3.21,2.69,6.82,5,7.74,5.84.97,11.51.51,17.1.02l-24.08-41.47-22.56.48-23.93,41.61,16.34.09,5.13-8.44,27.01-.04Z"/>
    <path class="st1" d="M762.16,407.87l-1.09,16.07-54.98-.02c4.78-9.41,5.6-19.83,2.99-29.98l-7.75-30.19c-2.58-8.84-2.26-17.7,1.31-26.12,1.74-4.09,2.21-8.39,5.36-11.86l-4.29,18.23c12.35-3.22,23.45-7.45,34.68-12.6l41.85-19.15,26.16-16.37c-11.99,11.7-24.1,20.47-26.02,37.64-1.6,1.33-4.83,2.64-5.54,5.42l-5.89,23.08c-.56,2.2-.26,4.5,1.42,6.01,1.16,1.04,2.93,1.73,5.63,2.4-1.47,5.17-1.88,11.14-4.83,15.8-2.06,3.26-1.82,6.87-3.25,10.07-1.67,3.76-5.4,6.07-5.77,11.57Z"/>
  </g>
  <g>
    <g>
      <path class="st3" d="M726.05,596.4c.03-7.74,4.26-13.01,11.07-15.38l24.31-4.55c8.01-1.5,15.98-1.37,23.72-4.67,3.12-1.33,3.11-10.67,0-11.82l-36.04.29c-2.69.02-2.51,6.52-1.97,8.64l-21.13.71.22-11.65c.12-6.4,6.33-11.56,13.16-11.58l54.1-.16c10.55-.03,15.55,8.44,15.72,17.66.2,10.88-4.87,18.84-16.02,20.62l-40.03,6.39c-1.77.28-2.5,1.32-3.2,1.87s-1,3.99.11,3.98l58.4-.25.09,13.53-82.57.46.05-14.08Z"/>
      <path class="st0" d="M585.42,583.29l-72.02.78c29.11-5.76,57.13-8.22,86.25-11.42,36.96-4.06,73.09-7.28,110.21-9.02v16.37s-124.45,3.29-124.45,3.29Z"/>
      <polygon class="st0" points="1016.17 582.74 934.09 581.35 825.06 579.99 825.04 563.61 868.03 565.87 963.69 575.46 1016.17 582.74"/>
      <path class="st0" d="M709.68,601l-148.36,1.27,76.61-8.1c24.23-2.03,47.32-4.18,71.58-4.6.53,3.47.66,6.61.16,11.43Z"/>
      <polygon class="st0" points="973.63 600.13 825.17 600.82 825.13 589.1 910.95 594.4 973.63 600.13"/>
      <g>
        <polygon class="st0" points="684.86 493.34 684.52 537.71 660.81 539.02 660.8 465.74 689.24 464.97 716.07 499.75 742.11 464.17 771.03 464.33 770.94 535.48 747.99 535.69 747.71 491.5 716.03 534.88 684.86 493.34"/>
        <path class="st0" d="M585.69,547.28c-6.68.72-13.04.54-18.55-2.52-4.84-2.68-7.7-8.32-7.72-13.87l-.18-41.93c-.05-10.83,7.86-19.44,18.79-20.06l50.05-2.84c8.51-.48,19.64,4.66,19.75,13.97l.52,42.9c.14,11.77-9.4,18.58-21.41,19.88l-41.25,4.46ZM618.59,524.26c3.46-.31,5.35-2.07,5.36-5.31l.05-29.93c0-2.31-1.76-3.55-3.95-3.44l-32.89,1.7c-1.87.1-3.34,1.77-3.34,3.7l.03,32.05c0,2.36,1.81,4.13,4.2,3.92l30.54-2.7Z"/>
        <path class="st0" d="M499.6,536.45l49.94-6.49-1.33,20.54-57.1,8.62c-10.67,1.61-21.48-5.39-21.62-16.55l-.6-48.65c-.12-10.02,6.62-19.36,17.08-20l63.02-3.83-.52,19.75-49.13,3.49c-1.84.13-3.52,1.74-3.52,3.65v36.02c0,1.84,1.23,3.5,3.8,3.44Z"/>
        <polygon class="st0" points="1024.39 494.69 1024.15 557.44 998.98 553.72 998.97 492.17 966.18 489.96 966.13 470.87 991.01 471.82 1055.07 475.91 1055.13 497.03 1024.39 494.69"/>
        <path class="st2" d="M618.59,524.26l-30.54,2.7c-2.39.21-4.2-1.56-4.2-3.92l-.03-32.05c0-1.94,1.47-3.61,3.34-3.7l32.89-1.7c2.19-.11,3.95,1.13,3.95,3.44l-.05,29.93c0,3.23-1.9,5-5.36,5.31Z"/>
        <g>
          <path class="st0" d="M948.66,533.12l-42.88-3.52-6.46,13-26.04-2.1,18.34-35.87,19.2-36.32,32.4,1.44,40.09,81.44-28.27-3.36-6.37-14.71ZM940.8,516.11l-14.04-29.62-13.72,27.47,27.76,2.14Z"/>
          <polygon class="st2" points="940.8 516.11 913.04 513.96 926.76 486.49 940.8 516.11"/>
        </g>
        <g>
          <path class="st0" d="M857.43,502.64c9.68,1.4,13.76,8,14.09,16.34.46,11.45-6.64,19.85-18.77,20.4l-67.98-3.48-.04-71.32,67.99,2.32c10.58,1.46,17.74,8.83,16.6,19.2,1.08,8.13-3.59,14.51-11.9,16.54ZM842.72,494.89c3.53.04,3.3-10.27.01-10.43l-34.33-1.67.17,11.74,34.15.36ZM844.17,521.29c4.08.02,3.48-10.58-.48-10.77l-35.28-1.67.21,12.25,35.55.19Z"/>
          <path class="st2" d="M844.17,521.29l-35.55-.19-.21-12.25,35.28,1.67c3.96.19,4.56,10.79.48,10.77Z"/>
          <path class="st2" d="M842.72,494.89l-34.15-.36-.17-11.74,34.33,1.67c3.29.16,3.52,10.47-.01,10.43Z"/>
        </g>
      </g>
      <g>
        <polygon class="st0" points="748.87 665.22 748.19 639.55 728.13 663.27 707.2 639.64 707.07 665.48 691.29 665.82 691.27 623.92 710.3 623.6 727.85 643.17 744.22 623.91 764.99 623.55 765 665.14 748.87 665.22"/>
        <path class="st0" d="M824.92,648.01l-28.79.1c-.47,2.46-.53,4.4.02,7.31l34.49-.1v9.5s-52.66.29-52.66.29l.13-41.72,51.77-.27c.54,3.03.6,5.78.13,8.98l-33.85.5c-.52,2.83-.46,4.9-.04,7.39l28.74-.02.08,8.05Z"/>
        <path class="st0" d="M610.49,656.8l-.07,9.56-41.34.22c-4.18.02-11.08-2.7-11.14-7.2l-.36-25.2c-.07-5.19,5.45-8.93,10.56-9l42.37-.59-.11,9.57-34.74.8-.68,18.08c-.07,1.88,1.04,3.92,3.08,3.91l32.43-.14Z"/>
        <g>
          <path class="st0" d="M901.12,664.01c-6.11-.28-12.21,1.35-17.93-.4l-11.17-9.5c-4.15-1.39-8.86-.35-13-.53l-.28,10.58-16.79.29v-41.48s46.03,0,46.03,0c4.85,0,9.13,2.91,10.94,7.12l-.1,14.95c-.03,4.45-5.16,6.36-9.5,7.64l11.8,11.34ZM881.52,643.82c2.87-1.14,2.71-10.17-.04-11.02l-22.5-.35.05,12.58c7.52-1.45,15.17,1.39,22.49-1.21Z"/>
          <path class="st2" d="M881.52,643.82c-7.32,2.6-14.97-.24-22.49,1.21l-.05-12.58,22.5.35c2.75.85,2.91,9.89.04,11.02Z"/>
        </g>
        <g>
          <path class="st0" d="M663.24,657.7l-27.01.04-5.13,8.44-16.34-.09,23.93-41.61,22.56-.48,24.08,41.47c-5.59.48-11.26.95-17.1-.02-2.31-.92-3.49-4.53-5-7.74ZM658.22,648.79l-8.75-16.05-8.3,16.17,17.05-.12Z"/>
          <polygon class="st2" points="658.22 648.79 641.17 648.91 649.48 632.74 658.22 648.79"/>
        </g>
        <g>
          <path class="st0" d="M953.01,655.72l-25.99-.09-4.46,8.31-17.39.03,23.43-41.38,22.34-.2,23.72,41.11c-5.62,1.18-11.4.54-17.34.46l-4.32-8.24ZM948.17,646.85l-8.77-15.22-7.63,15.28,16.4-.07Z"/>
          <polygon class="st2" points="948.17 646.85 931.77 646.92 939.4 631.64 948.17 646.85"/>
        </g>
      </g>
    </g>
    <g>
      <path class="st0" d="M630.33,372.34c-8.91-16.58-13.41-34.85-14.43-54.43-5.94-8.81-6.05-19.63-1.1-29.27-.18-8.29,1.87-15.91,5.86-24.15-8.02-2.37-15.58-3.92-23.27-8.1-3.86-2.09-9.82-7.52-8.68-12.48l8.05-35.08c1.56-6.78,7.19-8.66,14.78-7.74-11.02-9.31,2.09-14.6,1.4-23.1-.39-4.8,2.34-9.34,5.13-11.7,4.05-3.43,8.84-3.01,14.57-1.89.98-21.73,17.67-32.14,39.05-33.83.53-4.4.16-10.2,3.78-13.05,7.98-6.28,18.3-3.74,26.71.33l13.91,1.7c-8.5,1.92-18.92,2.97-21.82,9.27,20.04-10.83,41.14,7.89,46.59-18.2-5.05-1.13-9.16-2-12.44-5.57,2.09-4.5,4.89-8.12,8.41-11.39,2.52-17.26,14.48-30.08,31.85-32.99,12.03-2.02,24.41-.14,35.35,5.19,11.67,5.68,17.8,16.18,19.29,28.97,1.58,3.65,5.69,6.81,6.49,11.18l-10.38-.49c-6.27-.29-12.08-1.36-18.56-.17,9.61,3.23,19.12,4.9,30.21,6.42-4.84,4.2-10.91,1.07-15.49,3.74-7.01,4.08-.51,14.34-2.06,17.5-.44.9-3.24.97-4.56,1.37l-6.24,18.25c-1.08,3.15-3.91,3.48-6.73,2.44l-13.05-4.84c-4.58,4.04-7.6,8.66-10.6,14.08,5.07-1.36,5.51-5.53,9.11-8.84l7.73,13.38-6.5,9.84c-2.62,3.96-6.98,5.3-11.79,4.46-12.63-2.21-17.34-15.28-22.36-17.67-8.18-3.89-17.42-3.45-25.67-.86,13.37,1.1,25.81,1.82,31.27,14.24-3.35,1.56-6.49,1.93-9.41,4.8,6.55.49,12.7,1.19,19.66,3.45-3.07,3.46-6.33,6.27-7.32,11.34,3.84-4.37,8.06-7.59,14.2-9.07-.84,4.45-2.08,7.36-.6,10.96,2.39-5.12,3.82-9.59,8.14-12.55l7.36-2.58c2.79-3.03,4.37-6.91,8.03-9l17.15-9.79c3.74-2.14,6.47-5.41,7.34-9.75l5.79-29.1c.69-3.47,5.93-3.97,7.79-6.16l2.19-9.9c10.63-.14,20.66,2.05,30.91,4.12,2.25.46,3.52,1.14,3.97,2.92.39,1.52-.18,4.38-2.41,4.24-3.35-.21-6.32-2.51-10.67-.88,1.13,1.92,3.19.91,3.97,1.31,1.29.66,1.06,3.13.67,4.19l.66.58,70.33-6.46c3.58-.33,7.2,1.51,8.75,4.92,7.14,15.74,2.15,38.06-9.68,38.63l-28.35,1.38c-.95,3.48-2.66,7.78-6.78,8.18s-5.7,3.41-8.44,5.83c-5.54,4.89-13.71,4.57-20.79,4.05,2.01,2.64,5.83,1.73,8.53,2.38,1.72,5.44-2.69,9.11-6.54,11.66-3.35,19.69-21.72,52.9-40.41,46.16-10.28-3.71-19.34-9.41-27.8-16.58l15.27-13.25c7.09,1.44,14.97-13.09,21.12-21.32,1.41-1.89,5.88-.03,8.07.37-.28-4.92.38-10.07,4.14-13.36,1.39-.32,3.6.99,4.44,1.65l1.34-1.18c-1.7-1.99-4.05-5.64-2.33-8.69,1.37-2.43,5.28-3.03,7.52-4.22,5.1-2.73,7.31-7.75,4.75-12.97,2.23-2.94,1.89-6.24-.24-9.18,1.84-3.42,1.37-6.46-1.59-8.8,2.05-3.61.81-6.66-1.85-8.61-.13-.29-.36-.56-.6-.82l-19.79,1.22c-4.63.29-8.42,4.99-10.61,9.09,4.06-.71,7.32-2.6,10.97-4.16,9.34-3.98,19.1-4.52,18.32.54-.17,1.09-1.03,2.26-2.35,3.37,2.46.98,4.35,2.05,5.02,3.85.71,1.94-1.72,3.67-3.01,5.31.99,1.24,3.35,1.93,3.95,2.92.86,1.43-1.99,3.97-1.73,5.13l1.4,6.3c.3,1.36-1.47,3.59-3.58,4.72l-8.4,4.49c-3.95,3.65-9.96,3.66-14.2,5.62-3.45,4.7-3.54,12.3-9.45,15.42l-4.57-4.09c4.89,16.31-10.36,27.94-22.59,38.86-10.6,9.47-22.23,17.36-35.55,13.3-20.25-6.16-38.45-16.06-55.84-27.91-4.28-2.92-7.66-6.25-13.36-8.09,13.95,17.04,31.95,33.45,54.31,38.41l-5.98,10.17c-3.17,5.4-9.73,7.72-14.64,16.06,30.87-10.11,83.27-22.1,110.84-11.97,11.54,4.24,17.8,14.43,16.27,26.78-1.98,15.96-8.36,30.43-16.42,44.37-.37.65.8,2.06,1.61,2.53-1.91,3.16-3.49,6.39-6.44,8.5l-15.79,11.3c2.91.33,8.55-1.33,9.84,1.52,2.65,7.16.4,16.3-3.79,22.24-2.5,3.54-7.52,2.24-10.84,2.29l-6.86,16.31c4.6.34,6.78,1.12,9.58,3.18l11.5,8.47c2.63,1.94,5.89,2.16,7.83,5.23,4.6,7.27,14.36,1.07,24.58,6.28,4.85,2.47,7.1,6.7,6.77,12.37,59.95,4.42,118.7,11.09,177.54,26.35l-69.99-6.14c-124.11-10.88-277.72-12.24-401.6-1.66l-95.22,8.13c26.29-8.93,51.96-13.55,78.03-18.89-21.87-15.79-22.58-47.12-5.62-67.41-.81-2.02-1.85-3.16-3.08-4.81.19-6.86,2.6-13.53,6.76-19.05,4.53-6.01,12.23-7.81,18.8-4.14l15.35,8.58.72,6.26,8.6,2.38c1.29.36,2.85.96,2.99,1.73l.83,4.45c2.36-2.29,4.63-4.17,7.74-4.83s6.63.48,9.04,3.11l10.89,11.92,1.21-1.36ZM693.86,123.49c0-.99-.52-2.84-2.1-3.4-2.75-.99-7.33-1.19-9.94.79-1.64,1.24-1.14,5.09-.64,7.22,6.49-.26,12.67-1.1,12.68-4.61ZM931.27,125.4c-6.6-.93-14.81,17.23-6.66,31.86,1.19,2.14,2.91,3.59,4.97,3.64,11.1.24,12.73-33.94,1.69-35.5ZM909.78,156.97c-2.78-11.43-2.93-19.95,1.27-30.89-6.41,4.59-7.39,24.55-1.27,30.89ZM922.48,157.86c-4.81-10.32-3.77-20.48.61-31.3-7.47,6.96-7.21,25.46-1.71,32.34l1.1-1.04ZM896.67,155.23c-4.5-8.9-2.43-17.89.05-27.85-6.88,8.62-5.36,20.19-1.53,28.69l1.49-.84ZM877.46,149.96c-2.89-7.3-.95-13.59.52-21.37-5.56,6.38-4.96,15.73-1.57,22.36l1.06-.99ZM714.65,134.4c12.89,2.17,21.75,10.93,29.68,20.34-4.35-12.29-15.94-20.93-27.93-23.92-11.01-2.74-22.43.84-31.83,6.86-13.22,8.47-22.73,20.85-30.3,34.49-3.99,7.19-7.3,14.47-7.06,23.16l14.86-27.26c11.94-18.32,30.13-37.45,52.59-33.66ZM770.62,163.84l-11.13-23.55c1.55,9.42,8.97,29.05,11.85,27.62.64-.32,1.9-1.54,1.92-2.35.01-.54-2.29-.96-2.64-1.72ZM877.41,151.94l.52-.57c-.55-.75-1.33.03-.52.57ZM896.61,155.85c-.22.19-.44.37-.64.9l-10.82,1.36c-6.31-1.06-12.39-1.75-17.57,3.18,7.9-1.55,14.33-3.25,20.42,1.85,2-3.92,4.72-4.17,9.12-2.45l.94-1.23-1.46-3.62ZM910.06,158.6c.54.8,1.34,0,.54-.54l-.54.54ZM911.4,159.94l.54-.54c-.54-.8-1.34,0-.54.54ZM922.74,158.56l-.29,1.68c.65-.34.83-1.09.29-1.68ZM898.62,159.97l-1.22.87c.53,1.15,2.21.31,1.22-.87ZM854.9,181.33l-1.02,1.28c1.22,1.67,3.22-.19,1.02-1.28ZM628.26,245.64l12.21-37.79-13.93,35.86-.47,2.63c-.08.46,1.82.46,2.19-.7ZM762.16,407.87c.37-5.49,4.1-7.8,5.77-11.57,1.43-3.21,1.19-6.81,3.25-10.07,2.95-4.66,3.36-10.62,4.83-15.8-2.7-.67-4.47-1.36-5.63-2.4-1.69-1.51-1.98-3.8-1.42-6.01l5.89-23.08c.71-2.78,3.94-4.09,5.54-5.42,1.92-17.17,14.02-25.93,26.02-37.64l-26.16,16.37-41.85,19.15c-11.23,5.14-22.33,9.38-34.68,12.6l4.29-18.23c-3.14,3.46-3.62,7.77-5.36,11.86-3.58,8.42-3.9,17.28-1.31,26.12l7.75,30.19c2.61,10.15,1.79,20.57-2.99,29.98l54.98.02,1.09-16.07ZM630.66,372.68l-1.38,1.17,1.18,1.21.96-.78-.76-1.61ZM631.73,374.59l-.5,1.28c.44-.07,1.23-.42.5-1.28ZM634.46,427.16l-22.57-16.2c-3.76,1.05-7.63,1.69-11.82-1.16l-9.98-6.79-5.97-6.47-8.36,11.22c5.6,1.74,10.51,4.21,11.97,9.52s-1.17,10.15-2.51,14.87l49.24-4.99Z"/>
      <path class="st0" d="M818.21,212.58c.74-1.44.87-2.82,2.71-3.66.27,1.86-.69,3.1-2.71,3.66Z"/>
      <path class="st2" d="M634.46,427.16l-49.24,4.99c1.34-4.72,4-9.41,2.51-14.87s-6.37-7.78-11.97-9.52l8.36-11.22,5.97,6.47,9.98,6.79c4.19,2.85,8.06,2.22,11.82,1.16l22.57,16.2Z"/>
      <path class="st2" d="M714.65,134.4c-22.46-3.78-40.65,15.34-52.59,33.66l-14.86,27.26c-.24-8.69,3.07-15.97,7.06-23.16,7.57-13.64,17.08-26.02,30.3-34.49,9.4-6.02,20.82-9.6,31.83-6.86,11.99,2.99,23.59,11.63,27.93,23.92-7.92-9.41-16.79-18.17-29.68-20.34Z"/>
      <path class="st2" d="M693.86,123.49c-.02,3.51-6.19,4.34-12.68,4.61-.5-2.14-1-5.98.64-7.22,2.61-1.98,7.19-1.77,9.94-.79,1.58.57,2.1,2.42,2.1,3.4Z"/>
      <path class="st2" d="M628.26,245.64c-.37,1.16-2.27,1.15-2.19.7l.47-2.63,13.93-35.86-12.21,37.79Z"/>
      <path class="st2" d="M770.62,163.84c.36.76,2.66,1.18,2.64,1.72-.02.81-1.27,2.03-1.92,2.35-2.88,1.42-10.3-18.2-11.85-27.62l11.13,23.55Z"/>
      <g>
        <path class="st2" d="M931.27,125.4c11.05,1.56,9.41,35.74-1.69,35.5-2.07-.05-3.78-1.5-4.97-3.64-8.15-14.63.06-32.79,6.66-31.86ZM929.67,130.02c-5.17,2.17-4.49,26.51-.13,27.17,6.53.99,7.62-30.31.13-27.17Z"/>
        <path class="st2" d="M895.18,156.06c-3.83-8.5-5.35-20.07,1.53-28.69-2.47,9.96-4.55,18.95-.05,27.85-.27.2-.2.47-.06.62l1.46,3.62c.1.25.38.47.55.5.99,1.18-.69,2.02-1.22.87l-.28-.14c-4.39-1.72-7.12-1.47-9.12,2.45-6.09-5.1-12.52-3.4-20.42-1.85,5.18-4.94,11.27-4.24,17.57-3.18l10.82-1.36c-.04-.49-.24-.8-.79-.69Z"/>
        <path class="st2" d="M921.38,158.9c-5.5-6.87-5.76-25.38,1.71-32.34-4.38,10.82-5.41,20.98-.61,31.3-.37.41-.1.72.26.69.54.59.36,1.34-.29,1.68l-1.07-1.34Z"/>
        <path class="st2" d="M909.78,156.97c-6.12-6.34-5.14-26.3,1.27-30.89-4.2,10.94-4.06,19.47-1.27,30.89Z"/>
        <path class="st2" d="M876.41,150.95c-3.39-6.63-3.99-15.98,1.57-22.36-1.47,7.78-3.4,14.07-.52,21.37-.47.47-.4,1.12.47,1.41-.55-.75-1.33.03-.52.57l-1-.99Z"/>
        <path class="st2" d="M910.06,158.6c.54.8,1.34,0,.54-.54l1.34,1.34c-.54-.8-1.34,0-.54.54l-1.34-1.34Z"/>
        <path class="st0" d="M929.67,130.02c7.49-3.14,6.41,28.16-.13,27.17-4.36-.66-5.04-25,.13-27.17Z"/>
      </g>
    </g>
  </g>
</svg>