<?xml version="1.0" encoding="UTF-8"?>
<svg id="Layer_1" xmlns="http://www.w3.org/2000/svg" version="1.1" viewBox="0 0 1536 1024">
  <!-- Generator: Adobe Illustrator 30.3.0, SVG Export Plug-In . SVG Version: 2.1.3 Build 182)  -->
  <defs>
    <style>
      .st0 {
        fill: #050505;
      }

      .st1, .st2 {
        fill: #fefefe;
      }

      .st1, .st3 {
        display: none;
      }

      .st4 {
        fill: #b71d1e;
      }
    </style>
  </defs>
  <g class="st3">
    <path class="st1" d="M0,1024V0h1536v1024H0ZM860.9,127.41c.39-1.06.62-3.53-.67-4.19-.78-.4-2.84.61-3.97-1.31,4.35-1.63,7.31.67,10.67.88,2.23.14,2.8-2.72,2.41-4.24-.45-1.78-1.72-2.47-3.97-2.92-10.25-2.07-20.28-4.26-30.91-4.12l-2.19,9.9c-1.86,2.19-7.1,2.69-7.79,6.16l-5.79,29.1c-.86,4.34-3.59,7.61-7.34,9.75l-17.15,9.79c-3.67,2.09-5.24,5.98-8.03,9l-7.36,2.58c-4.31,2.96-5.75,7.43-8.14,12.55-1.48-3.61-.23-6.51.6-10.96-6.15,1.49-10.36,4.7-14.2,9.07,1-5.07,4.26-7.88,7.32-11.34-6.96-2.26-13.11-2.97-19.66-3.45,2.92-2.87,6.05-3.24,9.41-4.8-5.47-12.42-17.91-13.14-31.27-14.24,8.25-2.58,17.49-3.03,25.67.86,5.02,2.39,9.73,15.47,22.36,17.67,4.81.84,9.17-.5,11.79-4.46l6.5-9.84-7.73-13.38c-3.61,3.31-4.05,7.47-9.11,8.84,3-5.42,6.02-10.04,10.6-14.08l13.05,4.84c2.82,1.04,5.65.71,6.73-2.44l6.24-18.25c1.32-.4,4.12-.47,4.56-1.37,1.55-3.16-4.95-13.41,2.06-17.5,4.59-2.67,10.65.46,15.49-3.74-11.09-1.53-20.6-3.2-30.21-6.42,6.47-1.18,12.29-.12,18.56.17l10.38.49c-.8-4.37-4.91-7.53-6.49-11.18-1.49-12.79-7.62-23.29-19.29-28.97-10.94-5.33-23.32-7.2-35.35-5.19-17.37,2.91-29.33,15.74-31.85,32.99-3.52,3.27-6.32,6.89-8.41,11.39,3.28,3.57,7.39,4.44,12.44,5.57-5.45,26.09-26.56,7.37-46.59,18.2,2.9-6.29,13.32-7.35,21.82-9.27l-13.91-1.7c-8.41-4.07-18.74-6.61-26.71-.33-3.61,2.85-3.24,8.65-3.78,13.05-21.38,1.69-38.07,12.09-39.05,33.83-5.74-1.13-10.53-1.55-14.57,1.89-2.78,2.36-5.52,6.9-5.13,11.7.69,8.49-12.43,13.78-1.4,23.1-7.59-.92-13.22.96-14.78,7.74l-8.05,35.08c-1.14,4.96,4.82,10.39,8.68,12.48,7.69,4.17,15.25,5.72,23.27,8.1-3.99,8.24-6.04,15.86-5.86,24.15-4.95,9.65-4.83,20.46,1.1,29.27,1.02,19.58,5.52,37.85,14.43,54.43.14.11.24.22.33.35l.76,1.61c.07.15.22.24.3.3.73.85-.06,1.21-.5,1.28l-.76-.8-1.18-1.21-.16-.15-10.89-11.92c-2.4-2.63-5.95-3.77-9.04-3.11s-5.37,2.54-7.74,4.83l-.83-4.45c-.14-.78-1.7-1.37-2.99-1.73l-8.6-2.38-.72-6.26-15.35-8.58c-6.57-3.67-14.27-1.87-18.8,4.14-4.16,5.52-6.57,12.18-6.76,19.05,1.24,1.64,2.27,2.78,3.08,4.81-16.96,20.29-16.25,51.62,5.62,67.41-26.07,5.34-51.73,9.96-78.03,18.89l95.22-8.13c123.88-10.58,277.49-9.22,401.6,1.66l69.99,6.14c-58.84-15.26-117.59-21.93-177.54-26.35.33-5.67-1.92-9.9-6.77-12.37-10.22-5.21-19.98.99-24.58-6.28-1.94-3.07-5.2-3.3-7.83-5.23l-11.5-8.47c-2.8-2.06-4.98-2.84-9.58-3.18l6.86-16.31c3.32-.04,8.34,1.26,10.84-2.29,4.19-5.94,6.44-15.08,3.79-22.24-1.29-2.85-6.93-1.19-9.84-1.52l15.79-11.3c2.95-2.11,4.53-5.34,6.44-8.5-.81-.47-1.98-1.88-1.61-2.53,8.06-13.94,14.44-28.41,16.42-44.37,1.53-12.34-4.73-22.54-16.27-26.78-27.57-10.13-79.97,1.86-110.84,11.97,4.91-8.34,11.47-10.66,14.64-16.06l5.98-10.17c-22.36-4.97-40.36-21.38-54.31-38.41,5.71,1.84,9.08,5.17,13.36,8.09,17.39,11.86,35.59,21.75,55.84,27.91,13.32,4.05,24.96-3.84,35.55-13.3,12.23-10.93,27.48-22.55,22.59-38.86l4.57,4.09c5.9-3.12,5.99-10.72,9.45-15.42,4.23-1.96,10.24-1.97,14.2-5.62l8.4-4.49c2.11-1.13,3.88-3.36,3.58-4.72l-1.4-6.3c-.26-1.16,2.59-3.7,1.73-5.13-.59-.99-2.96-1.68-3.95-2.92,1.29-1.64,3.72-3.37,3.01-5.31-.66-1.8-2.55-2.87-5.02-3.85,1.32-1.11,2.18-2.28,2.35-3.37.78-5.06-8.97-4.53-18.32-.54-3.65,1.56-6.91,3.44-10.97,4.16,2.19-4.1,5.98-8.81,10.61-9.09l19.79-1.22c.21-.01.42-.13.51-.34ZM853.4,182.22c-.84-.66-3.05-1.97-4.44-1.65-3.76,3.29-4.41,8.45-4.14,13.36-2.19-.39-6.66-2.26-8.07-.37-6.15,8.23-14.02,22.76-21.12,21.32l-15.27,13.25c8.46,7.17,17.52,12.87,27.8,16.58,18.69,6.74,37.07-26.47,40.41-46.16,3.85-2.55,8.26-6.22,6.54-11.66-2.7-.65-6.52.27-8.53-2.38,7.08.52,15.25.84,20.79-4.05,2.74-2.42,4.3-5.42,8.44-5.83s5.83-4.7,6.78-8.18l28.35-1.38c11.83-.58,16.82-22.9,9.68-38.63-1.55-3.41-5.16-5.25-8.75-4.92l-70.33,6.46-.57.58c2.66,1.95,3.91,5,1.85,8.61,2.96,2.33,3.43,5.38,1.59,8.8,2.13,2.94,2.47,6.24.24,9.18,2.56,5.22.36,10.23-4.75,12.97-2.24,1.2-6.15,1.79-7.52,4.22-1.72,3.05.63,6.7,2.33,8.69.12.14.15.25.17.29,2.2,1.09.2,2.95-1.02,1.28l-.49-.39ZM818.21,212.58c2.02-.56,2.98-1.8,2.71-3.66-1.84.84-1.96,2.22-2.71,3.66ZM684.86,493.34l31.17,41.54,31.68-43.38.28,44.19,22.95-.21.08-71.15-28.92-.16-26.04,35.58-26.83-34.78-28.43.77v73.27s23.71-1.3,23.71-1.3l.35-44.37ZM857.43,502.64c8.3-2.03,12.98-8.41,11.9-16.54,1.15-10.37-6.02-17.74-16.6-19.2l-67.99-2.32.04,71.32,67.98,3.48c12.13-.55,19.23-8.95,18.77-20.4-.33-8.34-4.41-14.94-14.09-16.34ZM585.69,547.28l41.25-4.46c12.01-1.3,21.55-8.11,21.41-19.88l-.52-42.9c-.11-9.3-11.24-14.45-19.75-13.97l-50.05,2.84c-10.93.62-18.83,9.23-18.79,20.06l.18,41.93c.02,5.55,2.88,11.19,7.72,13.87,5.51,3.05,11.87,3.24,18.55,2.52ZM948.66,533.12l6.37,14.71,28.27,3.36-40.09-81.44-32.4-1.44-19.2,36.32-18.34,35.87,26.04,2.1,6.46-13,42.88,3.52ZM499.6,536.45c-2.56.06-3.79-1.6-3.79-3.44v-36.02c0-1.91,1.67-3.52,3.51-3.65l49.13-3.49.52-19.75-63.02,3.83c-10.45.64-17.2,9.98-17.08,20l.6,48.65c.14,11.16,10.95,18.16,21.62,16.55l57.1-8.62,1.33-20.54-49.94,6.49ZM1024.39,494.69l30.74,2.33-.06-21.11-64.06-4.09-24.89-.95.05,19.09,32.79,2.21v61.55s25.18,3.72,25.18,3.72l.24-62.75ZM726.05,596.4l-.05,14.08,82.57-.46-.09-13.53-58.4.25c-1.11,0-.84-3.4-.11-3.98s1.44-1.59,3.2-1.87l40.03-6.39c11.15-1.78,16.22-9.74,16.02-20.62-.17-9.22-5.17-17.69-15.72-17.66l-54.1.16c-6.84.02-13.04,5.17-13.16,11.58l-.22,11.65,21.13-.71c-.54-2.12-.72-8.61,1.97-8.64l36.04-.29c3.11,1.15,3.12,10.49,0,11.82-7.75,3.3-15.72,3.17-23.72,4.67l-24.31,4.55c-6.81,2.37-11.05,7.65-11.07,15.38ZM1016.17,582.74l-52.48-7.28-95.66-9.59-42.99-2.26.02,16.38,109.03,1.36,82.08,1.39ZM585.42,583.29l124.45-3.29v-16.37c-37.11,1.75-73.25,4.96-110.21,9.02-29.12,3.2-57.15,5.65-86.25,11.42l72.02-.78ZM709.68,601c.5-4.82.37-7.96-.16-11.43-24.26.43-47.35,2.58-71.58,4.6l-76.61,8.1,148.36-1.27ZM973.63,600.13l-62.69-5.73-85.81-5.31.03,11.72,148.47-.69ZM953.01,655.72l4.32,8.24c5.94.08,11.73.73,17.34-.46l-23.72-41.11-22.34.2-23.43,41.38,17.39-.03,4.46-8.31,25.99.09ZM748.87,665.22l16.13-.08v-41.58s-20.78.36-20.78.36l-16.37,19.26-17.55-19.58-19.03.32.02,41.9,15.78-.33.13-25.84,20.93,23.63,20.06-23.72.68,25.67ZM824.92,648.01l-.08-8.05-28.74.02c-.42-2.48-.48-4.56.04-7.39l33.85-.5c.47-3.19.41-5.94-.13-8.98l-51.77.27-.13,41.72,52.67-.29v-9.5s-34.49.1-34.49.1c-.55-2.91-.49-4.86-.02-7.31l28.79-.1ZM901.12,664.01l-11.8-11.34c4.34-1.29,9.47-3.19,9.5-7.64l.1-14.95c-1.81-4.21-6.09-7.12-10.94-7.12h-46.03s0,41.48,0,41.48l16.79-.29.28-10.58c4.14.18,8.85-.86,13,.53l11.17,9.5c5.72,1.75,11.82.12,17.93.4ZM610.49,656.8l-32.43.14c-2.04,0-3.16-2.03-3.08-3.91l.68-18.08,34.74-.8.11-9.57-42.37.59c-5.11.07-10.63,3.81-10.56,9l.36,25.2c.06,4.5,6.97,7.23,11.14,7.2l41.34-.22.07-9.56ZM663.24,657.7c1.51,3.21,2.69,6.82,5,7.74,5.84.97,11.51.51,17.1.02l-24.08-41.47-22.56.48-23.93,41.61,16.34.09,5.13-8.44,27.01-.04Z"/>
    <path class="st1" d="M762.16,407.87l-1.09,16.07-54.98-.02c4.78-9.41,5.6-19.83,2.99-29.98l-7.75-30.19c-2.58-8.84-2.26-17.7,1.31-26.12,1.74-4.09,2.21-8.39,5.36-11.86l-4.29,18.23c12.35-3.22,23.45-7.45,34.68-12.6l41.85-19.15,26.16-16.37c-11.99,11.7-24.1,20.47-26.02,37.64-1.6,1.33-4.83,2.64-5.54,5.42l-5.89,23.08c-.56,2.2-.26,4.5,1.42,6.01,1.16,1.04,2.93,1.73,5.63,2.4-1.47,5.17-1.88,11.14-4.83,15.8-2.06,3.26-1.82,6.87-3.25,10.07-1.67,3.76-5.4,6.07-5.77,11.57Z"/>
  </g>
  <g>
    <g>
      <path class="st4" d="M900.07,446.18c.03-7.74,4.26-13.01,11.07-15.38l24.31-4.55c8.01-1.5,15.98-1.37,23.72-4.67,3.12-1.33,3.11-10.67,0-11.82l-36.04.29c-2.69.02-2.51,6.52-1.97,8.64l-21.13.71.22-11.65c.12-6.4,6.33-11.56,13.16-11.58l54.1-.16c10.55-.03,15.55,8.44,15.72,17.66.2,10.88-4.87,18.84-16.02,20.62l-40.03,6.39c-1.77.28-2.5,1.32-3.2,1.87s-1,3.99.11,3.98l58.4-.25.09,13.53-82.57.46.05-14.08Z"/>
      <path class="st0" d="M759.44,433.07l-72.02.78c29.11-5.76,57.13-8.22,86.25-11.42,36.96-4.06,73.09-7.28,110.21-9.02v16.37s-124.45,3.29-124.45,3.29Z"/>
      <polygon class="st0" points="1190.19 432.51 1108.11 431.12 999.08 429.76 999.06 413.38 1042.05 415.64 1137.71 425.24 1190.19 432.51"/>
      <path class="st0" d="M883.7,450.77l-148.36,1.27,76.61-8.1c24.23-2.03,47.32-4.18,71.58-4.6.53,3.47.66,6.61.16,11.43Z"/>
      <polygon class="st0" points="1147.65 449.9 999.19 450.59 999.15 438.87 1084.97 444.17 1147.65 449.9"/>
      <g>
        <polygon class="st0" points="858.88 343.11 858.54 387.49 834.83 388.79 834.82 315.52 863.26 314.75 890.09 349.52 916.13 313.94 945.05 314.1 944.96 385.25 922.01 385.46 921.73 341.27 890.05 384.66 858.88 343.11"/>
        <path class="st0" d="M759.71,397.06c-6.68.72-13.04.54-18.55-2.52-4.84-2.68-7.7-8.32-7.72-13.87l-.18-41.93c-.05-10.83,7.86-19.44,18.79-20.06l50.05-2.84c8.51-.48,19.64,4.66,19.75,13.97l.52,42.9c.14,11.77-9.4,18.58-21.41,19.88l-41.25,4.46ZM792.61,374.03c3.46-.31,5.35-2.07,5.36-5.31l.05-29.93c0-2.31-1.76-3.55-3.95-3.44l-32.89,1.7c-1.87.1-3.34,1.77-3.34,3.7l.03,32.05c0,2.36,1.81,4.13,4.2,3.92l30.54-2.7Z"/>
        <path class="st0" d="M673.62,386.22l49.94-6.49-1.33,20.54-57.1,8.62c-10.67,1.61-21.48-5.39-21.62-16.55l-.6-48.65c-.12-10.02,6.62-19.36,17.08-20l63.02-3.83-.52,19.75-49.13,3.49c-1.84.13-3.52,1.74-3.52,3.65v36.02c0,1.84,1.23,3.5,3.8,3.44Z"/>
        <polygon class="st0" points="1198.41 344.47 1198.17 407.22 1173 403.49 1172.99 341.94 1140.2 339.73 1140.15 320.64 1165.03 321.59 1229.09 325.69 1229.15 346.8 1198.41 344.47"/>
        <path class="st2" d="M792.61,374.03l-30.54,2.7c-2.39.21-4.2-1.56-4.2-3.92l-.03-32.05c0-1.94,1.47-3.61,3.34-3.7l32.89-1.7c2.19-.11,3.95,1.13,3.95,3.44l-.05,29.93c0,3.23-1.9,5-5.36,5.31Z"/>
        <g>
          <path class="st0" d="M1122.68,382.89l-42.88-3.52-6.46,13-26.04-2.1,18.34-35.87,19.2-36.32,32.4,1.44,40.09,81.44-28.27-3.36-6.37-14.71ZM1114.82,365.88l-14.04-29.62-13.72,27.47,27.76,2.14Z"/>
          <polygon class="st2" points="1114.82 365.88 1087.06 363.74 1100.78 336.26 1114.82 365.88"/>
        </g>
        <g>
          <path class="st0" d="M1031.45,352.41c9.68,1.4,13.76,8,14.09,16.34.46,11.45-6.64,19.85-18.77,20.4l-67.98-3.48-.04-71.32,67.99,2.32c10.58,1.46,17.74,8.83,16.6,19.2,1.08,8.13-3.59,14.51-11.9,16.54ZM1016.74,344.66c3.53.04,3.3-10.27.01-10.43l-34.33-1.67.17,11.74,34.15.36ZM1018.19,371.06c4.08.02,3.48-10.58-.48-10.77l-35.28-1.67.21,12.25,35.55.19Z"/>
          <path class="st2" d="M1018.19,371.06l-35.55-.19-.21-12.25,35.28,1.67c3.96.19,4.56,10.79.48,10.77Z"/>
          <path class="st2" d="M1016.74,344.66l-34.15-.36-.17-11.74,34.33,1.67c3.29.16,3.52,10.47-.01,10.43Z"/>
        </g>
      </g>
      <g>
        <polygon class="st0" points="922.89 514.99 922.21 489.32 902.14 513.04 881.22 489.41 881.09 515.26 865.31 515.59 865.29 473.69 884.32 473.37 901.87 492.95 918.24 473.69 939.01 473.33 939.02 514.91 922.89 514.99"/>
        <path class="st0" d="M998.94,497.78l-28.79.1c-.47,2.46-.53,4.4.02,7.31l34.49-.1v9.5s-52.66.29-52.66.29l.13-41.72,51.77-.27c.54,3.03.6,5.78.13,8.98l-33.85.5c-.52,2.83-.46,4.9-.04,7.39l28.74-.02.08,8.05Z"/>
        <path class="st0" d="M784.51,506.57l-.07,9.56-41.34.22c-4.18.02-11.08-2.7-11.14-7.2l-.36-25.2c-.07-5.19,5.45-8.93,10.56-9l42.37-.59-.11,9.57-34.74.8-.68,18.08c-.07,1.88,1.04,3.92,3.08,3.91l32.43-.14Z"/>
        <g>
          <path class="st0" d="M1075.14,513.79c-6.11-.28-12.21,1.35-17.93-.4l-11.17-9.5c-4.15-1.39-8.86-.35-13-.53l-.28,10.58-16.79.29v-41.48s46.03,0,46.03,0c4.85,0,9.13,2.91,10.94,7.12l-.1,14.95c-.03,4.45-5.16,6.36-9.5,7.64l11.8,11.34ZM1055.53,493.59c2.87-1.14,2.71-10.17-.04-11.02l-22.5-.35.05,12.58c7.52-1.45,15.17,1.39,22.49-1.21Z"/>
          <path class="st2" d="M1055.53,493.59c-7.32,2.6-14.97-.24-22.49,1.21l-.05-12.58,22.5.35c2.75.85,2.91,9.89.04,11.02Z"/>
        </g>
        <g>
          <path class="st0" d="M837.26,507.48l-27.01.04-5.13,8.44-16.34-.09,23.93-41.61,22.56-.48,24.08,41.47c-5.59.48-11.26.95-17.1-.02-2.31-.92-3.49-4.53-5-7.74ZM832.24,498.56l-8.75-16.05-8.3,16.17,17.05-.12Z"/>
          <polygon class="st2" points="832.24 498.56 815.19 498.68 823.49 482.51 832.24 498.56"/>
        </g>
        <g>
          <path class="st0" d="M1127.03,505.49l-25.99-.09-4.46,8.31-17.39.03,23.43-41.38,22.34-.2,23.72,41.11c-5.62,1.18-11.4.54-17.34.46l-4.32-8.24ZM1122.19,496.63l-8.77-15.22-7.63,15.28,16.4-.07Z"/>
          <polygon class="st2" points="1122.19 496.63 1105.79 496.69 1113.42 481.41 1122.19 496.63"/>
        </g>
      </g>
    </g>
    <g>
      <path class="st0" d="M403.3,473c-5.64-10.5-8.49-22.08-9.14-34.48-3.76-5.58-3.83-12.43-.7-18.54-.11-5.25,1.18-10.08,3.71-15.3-5.08-1.5-9.87-2.49-14.74-5.13-2.45-1.33-6.22-4.76-5.5-7.91l5.1-22.23c.99-4.29,4.55-5.48,9.36-4.9-6.98-5.9,1.33-9.25.89-14.63-.25-3.04,1.49-5.92,3.25-7.41,2.57-2.18,5.6-1.91,9.23-1.2.62-13.77,11.2-20.36,24.74-21.43.34-2.79.1-6.47,2.39-8.27,5.05-3.98,11.6-2.37,16.92.21l8.81,1.08c-5.39,1.22-11.99,1.88-13.83,5.87,12.7-6.86,26.06,5,29.52-11.53-3.2-.71-5.8-1.27-7.88-3.53,1.32-2.85,3.1-5.15,5.33-7.22,1.6-10.93,9.18-19.06,20.18-20.9,7.62-1.28,15.46-.09,22.39,3.28,7.39,3.6,11.28,10.25,12.22,18.35,1,2.31,3.61,4.32,4.11,7.08l-6.58-.31c-3.97-.19-7.66-.86-11.76-.11,6.09,2.04,12.11,3.1,19.14,4.07-3.07,2.66-6.91.68-9.81,2.37-4.44,2.59-.32,9.08-1.31,11.08-.28.57-2.05.62-2.89.87l-3.95,11.56c-.68,1.99-2.48,2.21-4.26,1.54l-8.27-3.06c-2.9,2.56-4.82,5.49-6.71,8.92,3.21-.86,3.49-3.5,5.77-5.6l4.9,8.48-4.12,6.23c-1.66,2.51-4.42,3.36-7.47,2.82-8-1.4-10.98-9.68-14.17-11.2-5.18-2.46-11.04-2.18-16.26-.55,8.47.69,16.35,1.15,19.81,9.02-2.13.99-4.11,1.22-5.96,3.04,4.15.31,8.04.76,12.45,2.19-1.94,2.19-4.01,3.97-4.64,7.18,2.43-2.77,5.1-4.81,9-5.75-.53,2.82-1.32,4.66-.38,6.95,1.51-3.24,2.42-6.07,5.15-7.95l4.66-1.64c1.77-1.92,2.77-4.38,5.09-5.7l10.87-6.2c2.37-1.35,4.1-3.43,4.65-6.17l3.67-18.43c.44-2.2,3.76-2.52,4.93-3.9l1.39-6.27c6.73-.09,13.09,1.3,19.58,2.61,1.43.29,2.23.72,2.52,1.85.24.96-.12,2.77-1.53,2.68-2.12-.13-4-1.59-6.76-.56.72,1.22,2.02.58,2.52.83.82.42.67,1.98.42,2.65l.42.37,44.56-4.09c2.27-.21,4.56.96,5.54,3.12,4.52,9.97,1.36,24.11-6.13,24.48l-17.96.87c-.6,2.21-1.68,4.93-4.29,5.18s-3.61,2.16-5.35,3.69c-3.51,3.1-8.68,2.89-13.17,2.57,1.27,1.67,3.69,1.09,5.41,1.51,1.09,3.44-1.7,5.77-4.14,7.39-2.12,12.48-13.76,33.52-25.6,29.24-6.51-2.35-12.26-5.96-17.61-10.5l9.67-8.4c4.49.91,9.48-8.29,13.38-13.51.9-1.2,3.73-.02,5.11.23-.17-3.11.24-6.38,2.62-8.47.88-.2,2.28.63,2.81,1.05l.85-.75c-1.08-1.26-2.57-3.57-1.48-5.5.87-1.54,3.35-1.92,4.76-2.68,3.23-1.73,4.63-4.91,3.01-8.22,1.41-1.87,1.2-3.95-.15-5.82,1.17-2.17.87-4.09-1-5.57,1.3-2.29.51-4.22-1.17-5.45-.09-.18-.23-.36-.38-.52l-12.54.77c-2.94.18-5.33,3.16-6.72,5.76,2.57-.45,4.64-1.65,6.95-2.63,5.92-2.52,12.1-2.86,11.61.34-.11.69-.65,1.43-1.49,2.13,1.56.62,2.76,1.3,3.18,2.44.45,1.23-1.09,2.32-1.91,3.36.62.78,2.12,1.22,2.5,1.85.54.9-1.26,2.52-1.1,3.25l.89,3.99c.19.86-.93,2.28-2.27,2.99l-5.32,2.85c-2.5,2.31-6.31,2.32-9,3.56-2.19,2.98-2.24,7.79-5.98,9.77l-2.9-2.59c3.1,10.33-6.56,17.7-14.31,24.62-6.71,6-14.08,11-22.52,8.43-12.83-3.9-24.36-10.17-35.38-17.68-2.71-1.85-4.85-3.96-8.47-5.12,8.84,10.79,20.24,21.19,34.41,24.34l-3.79,6.44c-2.01,3.42-6.16,4.89-9.28,10.18,19.55-6.4,52.75-14,70.22-7.58,7.31,2.69,11.28,9.14,10.31,16.96-1.25,10.11-5.3,19.28-10.4,28.11-.24.41.5,1.3,1.02,1.6-1.21,2-2.21,4.05-4.08,5.39l-10,7.16c1.85.21,5.42-.85,6.24.96,1.68,4.53.25,10.33-2.4,14.09-1.58,2.24-4.76,1.42-6.87,1.45l-4.34,10.33c2.91.22,4.3.71,6.07,2.02l7.29,5.37c1.66,1.23,3.73,1.37,4.96,3.31,2.91,4.6,9.1.68,15.57,3.98,3.07,1.56,4.5,4.24,4.29,7.83,37.98,2.8,75.2,7.02,112.48,16.69l-44.34-3.89c-78.63-6.89-175.95-7.76-254.43-1.05l-60.32,5.15c16.66-5.65,32.92-8.59,49.43-11.97-13.86-10.01-14.3-29.85-3.56-42.71-.51-1.28-1.17-2-1.95-3.04.12-4.35,1.65-8.57,4.28-12.07,2.87-3.81,7.75-4.95,11.91-2.62l9.72,5.44.46,3.96,5.45,1.51c.82.23,1.8.61,1.89,1.1l.52,2.82c1.5-1.45,2.93-2.64,4.9-3.06s4.2.3,5.73,1.97l6.9,7.55.77-.86ZM443.55,315.35c0-.63-.33-1.8-1.33-2.16-1.75-.62-4.64-.76-6.3.5-1.04.79-.72,3.22-.41,4.58,4.11-.17,8.02-.7,8.03-2.92ZM593.96,316.56c-4.18-.59-9.38,10.91-4.22,20.19.75,1.35,1.84,2.28,3.15,2.31,7.03.15,8.07-21.5,1.07-22.49ZM580.34,336.56c-1.76-7.24-1.86-12.64.81-19.57-4.06,2.91-4.68,15.55-.81,19.57ZM588.38,337.12c-3.04-6.54-2.39-12.97.39-19.83-4.73,4.41-4.57,16.13-1.08,20.49l.7-.66ZM572.03,335.45c-2.85-5.64-1.54-11.33.03-17.65-4.36,5.46-3.4,12.79-.97,18.18l.94-.53ZM559.87,332.12c-1.83-4.62-.6-8.61.33-13.54-3.52,4.04-3.14,9.96-1,14.16l.67-.63ZM456.72,322.26c8.17,1.38,13.78,6.93,18.8,12.89-2.75-7.79-10.1-13.26-17.7-15.15-6.98-1.74-14.21.53-20.17,4.34-8.38,5.37-14.4,13.21-19.2,21.85-2.53,4.56-4.62,9.17-4.47,14.67l9.41-17.27c7.56-11.61,19.09-23.72,33.32-21.33ZM492.18,340.91l-7.05-14.92c.98,5.97,5.68,18.4,7.51,17.5.41-.2,1.2-.98,1.22-1.49,0-.34-1.45-.61-1.67-1.09ZM559.83,333.37l.33-.36c-.35-.48-.85.02-.33.36ZM572,335.85c-.14.12-.28.23-.4.57l-6.85.86c-3.99-.67-7.85-1.11-11.13,2.02,5.01-.98,9.08-2.06,12.94,1.17,1.27-2.48,2.99-2.64,5.78-1.55l.6-.78-.92-2.29ZM580.52,337.59c.34.51.85,0,.34-.34l-.34.34ZM581.37,338.44l.34-.34c-.34-.51-.85,0-.34.34ZM588.55,337.56l-.18,1.06c.41-.21.52-.69.18-1.06ZM573.27,338.45l-.77.55c.34.73,1.4.19.77-.55ZM545.57,351.99l-.64.81c.77,1.06,2.04-.12.64-.81ZM401.98,392.73l7.74-23.94-8.82,22.72-.3,1.67c-.05.29,1.15.29,1.39-.44ZM486.82,495.51c.24-3.48,2.6-4.94,3.66-7.33.9-2.03.75-4.32,2.06-6.38,1.87-2.95,2.13-6.73,3.06-10.01-1.71-.43-2.83-.86-3.57-1.52-1.07-.96-1.26-2.41-.9-3.81l3.73-14.62c.45-1.76,2.5-2.59,3.51-3.43,1.21-10.88,8.88-16.43,16.48-23.84l-16.57,10.37-26.51,12.13c-7.12,3.26-14.15,5.94-21.97,7.98l2.72-11.55c-1.99,2.19-2.29,4.92-3.39,7.51-2.26,5.33-2.47,10.95-.83,16.55l4.91,19.13c1.65,6.43,1.13,13.03-1.89,18.99h34.83s.69-10.17.69-10.17ZM403.51,473.22l-.87.74.75.77.61-.49-.48-1.02ZM404.18,474.43l-.32.81c.28-.04.78-.27.32-.81ZM405.92,507.73l-14.3-10.26c-2.38.67-4.83,1.07-7.49-.74l-6.32-4.3-3.78-4.1-5.3,7.11c3.55,1.11,6.66,2.67,7.58,6.03s-.74,6.43-1.59,9.42l31.2-3.16Z"/>
      <path class="st0" d="M522.33,371.79c.47-.91.55-1.79,1.72-2.32.17,1.18-.44,1.96-1.72,2.32Z"/>
      <path class="st2" d="M405.92,507.73l-31.2,3.16c.85-2.99,2.53-5.96,1.59-9.42s-4.04-4.93-7.58-6.03l5.3-7.11,3.78,4.1,6.32,4.3c2.66,1.81,5.11,1.4,7.49.74l14.3,10.26Z"/>
      <path class="st2" d="M456.72,322.26c-14.23-2.4-25.76,9.72-33.32,21.33l-9.41,17.27c-.15-5.5,1.94-10.11,4.47-14.67,4.8-8.64,10.82-16.48,19.2-21.85,5.95-3.81,13.19-6.08,20.17-4.34,7.6,1.89,14.94,7.37,17.7,15.15-5.02-5.96-10.63-11.51-18.8-12.89Z"/>
      <path class="st2" d="M443.55,315.35c0,2.22-3.92,2.75-8.03,2.92-.32-1.35-.63-3.79.41-4.58,1.66-1.25,4.55-1.12,6.3-.5,1,.36,1.33,1.53,1.33,2.16Z"/>
      <path class="st2" d="M401.98,392.73c-.24.73-1.44.73-1.39.44l.3-1.67,8.82-22.72-7.74,23.94Z"/>
      <path class="st2" d="M492.18,340.91c.23.48,1.68.75,1.67,1.09-.01.51-.81,1.29-1.22,1.49-1.83.9-6.53-11.53-7.51-17.5l7.05,14.92Z"/>
      <g>
        <path class="st2" d="M593.96,316.56c7,.99,5.96,22.65-1.07,22.49-1.31-.03-2.4-.95-3.15-2.31-5.17-9.27.04-20.77,4.22-20.19ZM592.94,319.48c-3.28,1.37-2.84,16.8-.08,17.21,4.14.63,4.83-19.2.08-17.21Z"/>
        <path class="st2" d="M571.09,335.98c-2.43-5.39-3.39-12.72.97-18.18-1.57,6.31-2.88,12.01-.03,17.65-.17.12-.13.3-.04.4l.92,2.29c.06.16.24.3.35.32.63.75-.44,1.28-.77.55l-.17-.09c-2.78-1.09-4.51-.93-5.78,1.55-3.86-3.23-7.93-2.15-12.94-1.17,3.28-3.13,7.14-2.69,11.13-2.02l6.85-.86c-.03-.31-.15-.51-.5-.44Z"/>
        <path class="st2" d="M587.69,337.78c-3.48-4.35-3.65-16.08,1.08-20.49-2.77,6.86-3.43,13.29-.39,19.83-.24.26-.06.45.16.44.34.37.23.85-.18,1.06l-.68-.85Z"/>
        <path class="st2" d="M580.34,336.56c-3.88-4.02-3.25-16.66.81-19.57-2.66,6.93-2.57,12.33-.81,19.57Z"/>
        <path class="st2" d="M559.2,332.74c-2.15-4.2-2.53-10.12,1-14.16-.93,4.93-2.16,8.91-.33,13.54-.3.3-.25.71.3.89-.35-.48-.85.02-.33.36l-.64-.63Z"/>
        <path class="st2" d="M580.52,337.59c.34.51.85,0,.34-.34l.85.85c-.34-.51-.85,0-.34.34l-.85-.85Z"/>
        <path class="st0" d="M592.94,319.48c4.75-1.99,4.06,17.84-.08,17.21-2.76-.42-3.2-15.84.08-17.21Z"/>
      </g>
    </g>
  </g>
</svg>